<svg width="50" height="50" viewBox="0 0 50 50" fill="none" xmlns="http://www.w3.org/2000/svg">
<path d="M25 0C11.193 0 0 11.193 0 25C0 38.807 11.193 50 25 50C38.807 50 50 38.807 50 25C49.9845 11.1995 38.8005 0.0154623 25 0ZM25 48.3333C12.1134 48.3333 1.66667 37.8866 1.66667 25C1.66667 12.1134 12.1134 1.66667 25 1.66667C37.8866 1.66667 48.3333 12.1134 48.3333 25C48.3187 37.8805 37.8805 48.3187 25 48.3333Z" fill="black"/>
<path d="M35 15H15C13.6194 15 12.5 16.1194 12.5 17.5V34.1667C12.5 34.6269 12.8731 35 13.3333 35H36.6667C37.1269 35 37.5 34.6269 37.5 34.1667V17.5C37.5 16.1194 36.3806 15 35 15ZM15 16.6667H35C35.4602 16.6667 35.8333 17.0398 35.8333 17.5V20H14.1667V17.5C14.1667 17.0398 14.5398 16.6667 15 16.6667ZM21.6667 21.6667H28.3333V26.6667H21.6667V21.6667ZM20 26.6667H14.1667V21.6667H20V26.6667ZM30 21.6667H35.8333V26.6667H30V21.6667ZM14.1667 33.3333V28.3333H20V33.3333H14.1667ZM21.6667 28.3333H28.3333V33.3333H21.6667V28.3333ZM30 33.3333V28.3333H35.8333V33.3333H30Z" fill="black"/>
</svg>
