<svg width="50" height="50" viewBox="0 0 50 50" fill="none" xmlns="http://www.w3.org/2000/svg">
<path d="M25 0C11.193 0 0 11.193 0 25C0 38.807 11.193 50 25 50C38.807 50 50 38.807 50 25C49.9845 11.1995 38.8005 0.0154623 25 0ZM25 48.3333C12.1134 48.3333 1.66667 37.8866 1.66667 25C1.66667 12.1134 12.1134 1.66667 25 1.66667C37.8866 1.66667 48.3333 12.1134 48.3333 25C48.3187 37.8805 37.8805 48.3187 25 48.3333Z" fill="black"/>
<path d="M18.8333 24.6667H27.1667C27.6269 24.6667 28 24.2935 28 23.8333C28 23.3731 27.6269 23 27.1667 23H18.8333C18.3731 23 18 23.3731 18 23.8333C18 24.2935 18.3731 24.6667 18.8333 24.6667Z" fill="black"/>
<path d="M18.8333 28.6667H27.1667C27.6269 28.6667 28 28.2935 28 27.8333C28 27.3731 27.6269 27 27.1667 27H18.8333C18.3731 27 18 27.3731 18 27.8333C18 28.2935 18.3731 28.6667 18.8333 28.6667Z" fill="black"/>
<path d="M18.8333 32.6667H27.1667C27.6269 32.6667 28 32.2935 28 31.8333C28 31.3731 27.6269 31 27.1667 31H18.8333C18.3731 31 18 31.3731 18 31.8333C18 32.2935 18.3731 32.6667 18.8333 32.6667Z" fill="black"/>
<path d="M22.1667 19H18.8333C18.3731 19 18 19.3731 18 19.8333C18 20.2935 18.3731 20.6667 18.8333 20.6667H22.1667C22.6269 20.6667 23 20.2935 23 19.8333C23 19.3731 22.6269 19 22.1667 19Z" fill="black"/>
<path d="M32 20.5V37.5C32 37.7761 31.7761 38 31.5 38H14.5C14.2239 38 14 37.7761 14 37.5V15.5C14 15.2239 14.2239 15 14.5 15H26M32 20.5H26.5C26.2239 20.5 26 20.2761 26 20V17V15M32 20.5L26 15" stroke="black" stroke-width="1.5"/>
<path d="M17 15V12.5C17 12.2239 17.2239 12 17.5 12H34.5C34.7761 12 35 12.2239 35 12.5V34.5C35 34.7761 34.7761 35 34.5 35H32" stroke="black" stroke-width="1.5"/>
</svg>
