<svg width="50" height="50" viewBox="0 0 50 50" fill="none" xmlns="http://www.w3.org/2000/svg">
<path d="M25 0C11.193 0 0 11.193 0 25C0 38.807 11.193 50 25 50C38.807 50 50 38.807 50 25C49.9845 11.1995 38.8005 0.0154623 25 0ZM25 48.3333C12.1134 48.3333 1.66667 37.8866 1.66667 25C1.66667 12.1134 12.1134 1.66667 25 1.66667C37.8866 1.66667 48.3333 12.1134 48.3333 25C48.3187 37.8805 37.8805 48.3187 25 48.3333Z" fill="black"/>
<path d="M34 22V13C34 12.4477 33.5523 12 33 12H17C16.4477 12 16 12.4477 16 13V37C16 37.5523 16.4477 38 17 38H33C33.5523 38 34 37.5523 34 37V26" stroke="black" stroke-width="1.5"/>
<path d="M30 24H41M41 24L38.0667 21M41 24L38.0667 27" stroke="black" stroke-width="1.5"/>
</svg>
