<svg width="50" height="50" viewBox="0 0 50 50" fill="none" xmlns="http://www.w3.org/2000/svg">
<path d="M25 0C11.193 0 0 11.193 0 25C0 38.807 11.193 50 25 50C38.807 50 50 38.807 50 25C49.9845 11.1995 38.8005 0.0154623 25 0ZM25 48.3333C12.1134 48.3333 1.66667 37.8866 1.66667 25C1.66667 12.1134 12.1134 1.66667 25 1.66667C37.8866 1.66667 48.3333 12.1134 48.3333 25C48.3187 37.8805 37.8805 48.3187 25 48.3333Z" fill="black"/>
<path d="M37.1514 21.8223L25.4847 13.489C25.195 13.2823 24.806 13.2823 24.5163 13.489L12.8496 21.8223C12.5554 22.0331 12.4309 22.4095 12.5412 22.7542C12.6519 23.0988 12.9721 23.3328 13.3338 23.3332H15.8338V35.8332C15.8338 36.2934 16.207 36.6665 16.6672 36.6665H33.3338C33.794 36.6665 34.1672 36.2934 34.1672 35.8332V23.3332H36.6672C37.0289 23.3328 37.3491 23.0988 37.4598 22.7542C37.5701 22.4095 37.4456 22.0331 37.1514 21.8223ZM25.0005 15.1907L34.0671 21.6665H15.9339L25.0005 15.1907ZM23.3338 34.9998V29.9998C23.3338 29.0794 24.0801 28.3332 25.0005 28.3332C25.9209 28.3332 26.6672 29.0794 26.6672 29.9998V34.9998H23.3338ZM28.3338 34.9998V29.9998C28.3338 28.159 26.8413 26.6665 25.0005 26.6665C23.1597 26.6665 21.6672 28.159 21.6672 29.9998V34.9998H17.5005V23.3332H32.5005V34.9998H28.3338Z" fill="black"/>
</svg>
