<svg width="50" height="50" viewBox="0 0 50 50" fill="none" xmlns="http://www.w3.org/2000/svg">
<path d="M25 0C11.193 0 0 11.193 0 25C0 38.807 11.193 50 25 50C38.807 50 50 38.807 50 25C49.9845 11.1995 38.8005 0.0154623 25 0ZM25 48.3333C12.1134 48.3333 1.66667 37.8866 1.66667 25C1.66667 12.1134 12.1134 1.66667 25 1.66667C37.8866 1.66667 48.3333 12.1134 48.3333 25C48.3187 37.8805 37.8805 48.3187 25 48.3333Z" fill="black"/>
<path d="M34.9467 19.7335C34.9373 19.7066 34.9308 19.681 34.919 19.6549C34.8787 19.5642 34.8226 19.4816 34.7526 19.4108L28.0859 12.7441C28.0147 12.6742 27.9317 12.618 27.841 12.5773C27.8166 12.5667 27.7917 12.5598 27.7657 12.5509C27.6941 12.526 27.6192 12.511 27.5431 12.5065C27.5309 12.5081 27.5167 12.5 27.5 12.5H15.8333C15.3731 12.5 15 12.8731 15 13.3333V36.6667C15 37.1269 15.3731 37.5 15.8333 37.5H34.1667C34.6269 37.5 35 37.1269 35 36.6667V20C35 19.9817 34.9906 19.9658 34.989 19.9475C34.9849 19.8747 34.9707 19.8022 34.9467 19.7335ZM32.1549 19.1667H28.3333V15.3451L32.1549 19.1667ZM16.6667 35.8333V14.1667H26.6667V20C26.6667 20.4602 27.0398 20.8333 27.5 20.8333H33.3333V35.8333H16.6667Z" fill="black"/>
<path d="M29.1667 26.6667H25.8333V23.3333C25.8333 22.8731 25.4602 22.5 25 22.5C24.5398 22.5 24.1667 22.8731 24.1667 23.3333V26.6667H20.8333C20.3731 26.6667 20 27.0398 20 27.5C20 27.9602 20.3731 28.3333 20.8333 28.3333H24.1667V31.6667C24.1667 32.1269 24.5398 32.5 25 32.5C25.4602 32.5 25.8333 32.1269 25.8333 31.6667V28.3333H29.1667C29.6269 28.3333 30 27.9602 30 27.5C30 27.0398 29.6269 26.6667 29.1667 26.6667Z" fill="black"/>
</svg>
