<svg width="50" height="50" viewBox="0 0 50 50" fill="none" xmlns="http://www.w3.org/2000/svg">
<path d="M25 0C11.193 0 0 11.193 0 25C0 38.807 11.193 50 25 50C38.807 50 50 38.807 50 25C49.9845 11.1995 38.8005 0.0154623 25 0ZM25 48.3333C12.1134 48.3333 1.66667 37.8866 1.66667 25C1.66667 12.1134 12.1134 1.66667 25 1.66667C37.8866 1.66667 48.3333 12.1134 48.3333 25C48.3187 37.8805 37.8805 48.3187 25 48.3333Z" fill="black"/>
<path d="M33.3333 11.6667H16.6666C15.286 11.6667 14.1666 12.7861 14.1666 14.1667V16.6667C13.7064 16.6667 13.3333 17.0399 13.3333 17.5001C13.3333 17.9603 13.7064 18.3334 14.1666 18.3334V23.3334C13.7064 23.3334 13.3333 23.7065 13.3333 24.1667C13.3333 24.627 13.7064 25.0001 14.1666 25.0001V30.0001C13.7064 30.0001 13.3333 30.3732 13.3333 30.8334C13.3333 31.2936 13.7064 31.6667 14.1666 31.6667V34.1667C14.1666 35.5474 15.286 36.6667 16.6666 36.6667H33.3333C33.7935 36.6667 34.1666 36.2936 34.1666 35.8334V12.5001C34.1666 12.0399 33.7935 11.6667 33.3333 11.6667ZM15.8333 34.1667V31.6667C16.2935 31.6667 16.6666 31.2936 16.6666 30.8334C16.6666 30.3732 16.2935 30.0001 15.8333 30.0001V25.0001C16.2935 25.0001 16.6666 24.627 16.6666 24.1667C16.6666 23.7065 16.2935 23.3334 15.8333 23.3334V18.3334C16.2935 18.3334 16.6666 17.9603 16.6666 17.5001C16.6666 17.0399 16.2935 16.6667 15.8333 16.6667V14.1667C15.8333 13.7065 16.2064 13.3334 16.6666 13.3334H19.1666V35.0001H16.6666C16.2064 35.0001 15.8333 34.627 15.8333 34.1667ZM32.4999 35.0001H20.8333V13.3334H32.4999V35.0001Z" fill="black"/>
</svg>
