<svg width="50" height="50" viewBox="0 0 50 50" fill="none" xmlns="http://www.w3.org/2000/svg">
<path d="M25 50C38.807 50 50 38.807 50 25C50 11.193 38.807 0 25 0C11.193 0 0 11.193 0 25C0.0154623 38.8005 11.1995 49.9845 25 50ZM25 1.66667C37.8866 1.66667 48.3333 12.1134 48.3333 25C48.3333 37.8866 37.8866 48.3333 25 48.3333C12.1134 48.3333 1.66667 37.8866 1.66667 25C1.68132 12.1195 12.1195 1.68132 25 1.66667Z" fill="black"/>
<path d="M24.9997 39.1666C29.7674 39.1507 34.2462 36.8786 37.0749 33.0407C37.2153 32.849 37.2674 32.6065 37.2182 32.3742C36.2497 27.9565 32.9803 24.401 28.659 23.0667C31.122 21.4493 32.2312 18.4073 31.3869 15.5842C30.543 12.7616 27.9461 10.8271 24.9997 10.8271C22.0534 10.8271 19.4565 12.7616 18.6126 15.5842C17.7683 18.4073 18.8775 21.4493 21.3405 23.0667C17.02 24.401 13.7506 27.9552 12.7813 32.3726C12.7321 32.6049 12.7842 32.8474 12.9245 33.0391C15.7529 36.8778 20.2317 39.1503 24.9997 39.1666V39.1666ZM19.9997 17.4999C19.9997 14.7387 22.2385 12.4999 24.9997 12.4999C27.761 12.4999 29.9997 14.7387 29.9997 17.4999C29.9997 20.2612 27.761 22.4999 24.9997 22.4999C22.2393 22.4971 20.0026 20.2603 19.9997 17.4999ZM24.9997 24.1666C29.9558 24.1873 34.2722 27.554 35.4998 32.3559C32.9815 35.6009 29.1042 37.4999 24.9965 37.4999C20.8884 37.4999 17.0115 35.6009 14.4932 32.3559C15.7212 27.5516 20.0412 24.1845 24.9997 24.1666V24.1666Z" fill="black"/>
</svg>
