<svg width="50" height="50" viewBox="0 0 50 50" fill="none" xmlns="http://www.w3.org/2000/svg">
<path d="M25 0C11.193 0 0 11.193 0 25C0 38.807 11.193 50 25 50C38.807 50 50 38.807 50 25C49.9845 11.1995 38.8005 0.0154623 25 0ZM25 48.3333C12.1134 48.3333 1.66667 37.8866 1.66667 25C1.66667 12.1134 12.1134 1.66667 25 1.66667C37.8866 1.66667 48.3333 12.1134 48.3333 25C48.3187 37.8805 37.8805 48.3187 25 48.3333Z" fill="black"/>
<path d="M38 34H12C11.4477 34 11 33.5523 11 33V18C11 17.4477 11.4477 17 12 17H21.2667H38C38.5523 17 39 17.4477 39 18V33C39 33.5523 38.5523 34 38 34Z" stroke="black" stroke-width="1.5"/>
<path d="M21 17V15C21 14.4477 21.4477 14 22 14H28C28.5523 14 29 14.4477 29 15V17" stroke="black" stroke-width="1.5"/>
<path d="M11 24C11 25 11.9333 26 13.8 26H22.6667M22.6667 26V27C22.6667 27.5523 23.1144 28 23.6667 28H26.3333C26.8856 28 27.3333 27.5523 27.3333 27V26M22.6667 26V25C22.6667 24.4477 23.1144 24 23.6667 24H26.3333C26.8856 24 27.3333 24.4477 27.3333 25V26M27.3333 26H36.2C38.0667 26 39 25 39 24" stroke="black" stroke-width="1.5"/>
</svg>
