<svg width="50" height="50" viewBox="0 0 50 50" fill="none" xmlns="http://www.w3.org/2000/svg">
<path d="M25 0C11.193 0 0 11.193 0 25C0 38.807 11.193 50 25 50C38.807 50 50 38.807 50 25C49.9845 11.1995 38.8005 0.0154623 25 0ZM25 48.3333C12.1134 48.3333 1.66667 37.8866 1.66667 25C1.66667 12.1134 12.1134 1.66667 25 1.66667C37.8866 1.66667 48.3333 12.1134 48.3333 25C48.3187 37.8805 37.8805 48.3187 25 48.3333Z" fill="black"/>
<path d="M34.3114 16.6898C34.3057 16.6825 34.3049 16.6723 34.2984 16.6658C34.2675 16.6317 34.2325 16.6024 34.2016 16.569C33.9639 16.309 33.7153 16.0591 33.4565 15.8191C33.3951 15.7625 33.3341 15.706 33.2706 15.6526C33.0057 15.4175 32.7306 15.1957 32.4466 14.9857C32.3884 14.9426 32.3315 14.8983 32.2725 14.8559C31.9701 14.6378 31.658 14.4348 31.3358 14.246C31.2914 14.22 31.2524 14.1915 31.2048 14.1626C30.8581 13.9636 30.5016 13.7809 30.135 13.6149L30.0691 13.5832C29.6809 13.4098 29.2846 13.2564 28.8809 13.1234L28.8675 13.1185C28.457 12.9838 28.0399 12.8707 27.6175 12.7799H27.6082C27.2033 12.6945 26.7915 12.6282 26.3732 12.5818C26.3525 12.5818 26.3325 12.574 26.3118 12.5716C25.439 12.4784 24.5592 12.4784 23.6864 12.5716C23.6657 12.5716 23.6458 12.5793 23.625 12.5818C23.2067 12.6273 22.7949 12.6933 22.3901 12.7799H22.3807C21.9583 12.8707 21.5413 12.9838 21.1307 13.1185L21.1165 13.1234C20.7132 13.2564 20.3169 13.4098 19.9291 13.5832C19.9067 13.5933 19.8848 13.6051 19.8624 13.6157C19.4962 13.7825 19.1397 13.9648 18.7931 14.1626C18.7491 14.1882 18.71 14.2167 18.6624 14.246C18.3406 14.436 18.0285 14.6391 17.7257 14.8559C17.6667 14.8983 17.6098 14.9389 17.5516 14.9857C17.2676 15.1981 16.9925 15.4199 16.7276 15.6526C16.6641 15.7084 16.6031 15.765 16.5417 15.8191C16.2829 16.0575 16.0343 16.3074 15.7966 16.569C15.7657 16.6024 15.7307 16.6317 15.6998 16.6658C15.6933 16.6723 15.6925 16.6825 15.6868 16.6898C11.4355 21.4144 11.4355 28.5856 15.6868 33.3101C15.6925 33.3175 15.6933 33.3276 15.6998 33.3341C15.7307 33.3683 15.7657 33.3976 15.7966 33.431C16.0343 33.691 16.2829 33.9408 16.5417 34.1809C16.6031 34.2375 16.6641 34.294 16.7276 34.3473C16.9925 34.5825 17.2676 34.8043 17.5516 35.0142C17.6098 35.0574 17.6667 35.0976 17.7257 35.144C18.0281 35.3613 18.3402 35.5648 18.6624 35.754C18.7068 35.78 18.7459 35.8085 18.7931 35.8374C19.1397 36.036 19.4958 36.2178 19.8608 36.3843C19.884 36.394 19.9067 36.4066 19.9299 36.4168C20.3173 36.5906 20.7132 36.7436 21.1165 36.8758L21.1307 36.8815C21.5413 37.0162 21.9583 37.1293 22.3807 37.22H22.3901C22.7949 37.3055 23.2067 37.3718 23.625 37.4182C23.6458 37.4182 23.6657 37.4259 23.6864 37.4284C24.5592 37.5216 25.439 37.5216 26.3118 37.4284C26.3325 37.4284 26.3525 37.4206 26.3732 37.4182C26.7915 37.3722 27.2033 37.3059 27.6082 37.22H27.6175C28.0399 37.1293 28.457 37.0162 28.8675 36.8815L28.8818 36.8758C29.285 36.7436 29.6809 36.5906 30.0683 36.4168C30.0915 36.4066 30.1134 36.394 30.1366 36.3843C30.5028 36.2174 30.8589 36.0351 31.2048 35.8374C31.2491 35.8118 31.2882 35.7833 31.3358 35.754C31.6572 35.564 31.9697 35.3609 32.2725 35.144C32.3315 35.1017 32.3884 35.061 32.4466 35.0142C32.7306 34.8018 33.0057 34.5801 33.2706 34.3473C33.3341 34.2916 33.3951 34.235 33.4565 34.1809C33.7161 33.9425 33.9644 33.6926 34.2016 33.431C34.2325 33.3976 34.2675 33.3683 34.2984 33.3341C34.3049 33.3276 34.3057 33.3175 34.3114 33.3101C38.5627 28.5856 38.5627 21.4144 34.3114 16.6898ZM33.4675 31.7391C32.6517 31.3452 31.8029 31.0242 30.9309 30.78C31.3586 29.1642 31.5982 27.5041 31.645 25.8333H35.7909C35.627 27.9907 34.8172 30.0484 33.4675 31.7391ZM32.2074 33.0652C31.9962 33.2532 31.7793 33.4326 31.5567 33.6035C31.5132 33.6365 31.4692 33.669 31.4249 33.7016C31.1987 33.8684 30.9675 34.0267 30.7307 34.1768L30.5916 34.2598C30.3531 34.4051 30.109 34.5418 29.8608 34.6675C29.8091 34.6932 29.7574 34.7168 29.7057 34.7416C29.4714 34.8559 29.2337 34.9613 28.9924 35.0574C29.578 34.2261 30.054 33.3227 30.4093 32.3702C31.0416 32.5415 31.6613 32.7559 32.2647 33.0106L32.2074 33.0652ZM20.1391 34.6667C19.8892 34.541 19.6467 34.4043 19.4083 34.259L19.2691 34.176C19.0319 34.0263 18.8004 33.868 18.575 33.7008C18.5306 33.6682 18.4867 33.6356 18.4431 33.6027C18.2209 33.4318 18.0041 33.2523 17.7925 33.064L17.7339 33.0106C18.3377 32.7559 18.9574 32.5415 19.5898 32.3702C19.945 33.3227 20.4211 34.2261 21.0066 35.0574C20.7649 34.9609 20.5273 34.8555 20.2933 34.7416C20.2424 34.7176 20.1908 34.694 20.1391 34.6667ZM14.2089 25.8333H18.3548C18.4016 27.5041 18.6413 29.1642 19.0689 30.78C18.1969 31.0242 17.3481 31.3452 16.5323 31.7391C15.1826 30.0484 14.3729 27.9907 14.2089 25.8333ZM16.5323 18.2609C17.3481 18.6548 18.1969 18.9758 19.0689 19.22C18.6413 20.8358 18.4016 22.4959 18.3548 24.1666H14.2089C14.3729 22.0093 15.1826 19.9516 16.5323 18.2609ZM17.7925 16.9348C18.0037 16.7468 18.2205 16.5674 18.4431 16.3965C18.4867 16.3635 18.5265 16.331 18.575 16.2984C18.8 16.1316 19.0311 15.9737 19.2683 15.824L19.4091 15.7409C19.6475 15.5965 19.8909 15.4598 20.1391 15.334C20.1908 15.3084 20.2424 15.2848 20.2941 15.26C20.5281 15.1457 20.7657 15.0403 21.0074 14.9442C20.4219 15.7755 19.9458 16.6789 19.5906 17.6318C18.9583 17.4601 18.3385 17.2457 17.7351 16.9909L17.7925 16.9348ZM29.8608 15.3332C30.1106 15.459 30.3523 15.5957 30.5907 15.7401L30.7315 15.8231C30.9683 15.9717 31.1995 16.1295 31.4249 16.2976C31.4692 16.3301 31.5132 16.3623 31.5567 16.3957C31.7789 16.567 31.9958 16.7464 32.2074 16.934L32.266 16.9873C31.6621 17.2424 31.0424 17.4564 30.4101 17.6282C30.0549 16.6756 29.5788 15.7723 28.9932 14.941C29.2349 15.0374 29.4726 15.1428 29.7065 15.2567C29.7574 15.2824 29.8091 15.306 29.8608 15.3332ZM24.1666 18.315C23.177 18.2792 22.1915 18.1742 21.2166 18.0009C21.9998 16.0709 23.0659 14.7835 24.1666 14.3416V18.315ZM24.1666 19.9817V24.1666H20.0207C20.0634 22.6225 20.2847 21.0884 20.6799 19.5951C21.8306 19.8128 22.9963 19.941 24.1666 19.9784V19.9817ZM24.1666 25.8333V30.0216C22.9963 30.059 21.8306 30.1872 20.6799 30.4049C20.2847 28.9115 20.0634 27.3775 20.0207 25.8333H24.1666ZM24.1666 31.685V35.6584C23.0659 35.2165 21.9998 33.929 21.2166 31.9991C22.1915 31.8258 23.177 31.7208 24.1666 31.685ZM25.8333 31.685C26.8228 31.7208 27.8084 31.8258 28.7833 31.9991C28 33.929 26.9339 35.2165 25.8333 35.6584V31.685ZM25.8333 30.0183V25.8333H29.9792C29.9364 27.3775 29.7151 28.9115 29.32 30.4049C28.1693 30.1872 27.0035 30.059 25.8333 30.0216V30.0183ZM25.8333 24.1666V19.9784C27.0035 19.941 28.1693 19.8128 29.32 19.5951C29.7151 21.0884 29.9364 22.6225 29.9792 24.1666H25.8333ZM25.8333 18.315V14.3416C26.9339 14.7835 28 16.0709 28.7833 18.0009C27.8084 18.1742 26.8228 18.2792 25.8333 18.315ZM31.645 24.1666C31.5982 22.4959 31.3586 20.8358 30.9309 19.22C31.8029 18.9758 32.6517 18.6548 33.4675 18.2609C34.8172 19.9516 35.627 22.0093 35.7909 24.1666H31.645Z" fill="black"/>
</svg>
